<?xml version="1.0" encoding="UTF-8"?>
<svg id="Layer_1" data-name="Layer 1" xmlns="http://www.w3.org/2000/svg" viewBox="0 0 48 48">
  <defs>
    <style>
      .cls-1 {
        fill: #0e57b4;
        stroke-width: 0px;
      }
    </style>
  </defs>
  <path class="cls-1" d="m25.64,15.15c-.57.91-1.43,1.47-2.38,1.87-5.98,2.52-12.05,2.98-18.13.34C.94,15.54-.6,12.64.26,8.57.87,5.7,2.82,3.92,6.03,3.25c8.23-1.71,18.33,4.39,19.61,11.9Z"/>
  <path class="cls-1" d="m40.82,44.66c-.31,1.06-1.11,1.45-2,1.62-2.84.54-5.68.45-8.51-.11-.56-.11-.98-.43-1.36-.8-5.33-5.33-8.39-11.5-8.89-18.63-.07-1.07.31-1.85,1.15-2.6,2.37-2.14,4.94-4.03,7.94-5.43.47-.22.9-.58,1.63-.39-1.71,10.25,1.57,19.07,10.04,26.34Z"/>
  <path class="cls-1" d="m43.64,42.52c-7.92-3.3-13.45-17.88-9.28-24.29,3.68-.44,9.92,3.84,12.21,8.38,2.69,5.33,1.36,12.66-2.94,15.9Z"/>
  <path class="cls-1" d="m31.09,15.04c-2.14-1.25-3.39-4.52-2.72-7.29.7-2.91,2.68-4.91,5.75-6.07,1.89-.71,3.19-.23,3.95,1.46.73,1.63.62,3.31.11,4.97-.9,2.96-4.38,6.34-7.09,6.93Z"/>
  <path class="cls-1" d="m23.98,46.17c-3.94-.57-7.59-1.53-10.64-3.79-.43-.32-.73-.75-.68-1.28.38-4.22,1.76-8.16,4.52-11.81.84,6.18,3.38,11.73,6.8,16.88Z"/>
</svg>